<?xml version="1.0" encoding="utf-8"?>
<!-- Generator: Adobe Illustrator 23.0.1, SVG Export Plug-In . SVG Version: 6.00 Build 0)  -->
<svg version="1.1" id="Layer_1" xmlns="http://www.w3.org/2000/svg" xmlns:xlink="http://www.w3.org/1999/xlink" x="0px" y="0px"
	 viewBox="0 0 242 84" style="enable-background:new 0 0 242 84;" xml:space="preserve">
<style type="text/css">
	.st0{fill:#FFFFFF;}
</style>
<g>
	<path class="st0" d="M23.83,61.15c0-1.26,0.17-4.62,0.17-6.05c0-6.13-2.18-8.9-7.9-9.07c-2.69-0.17-4.28-1.76-4.28-4.03
		c0-2.27,1.6-3.86,4.28-4.03c5.71-0.25,7.9-2.94,7.9-9.16c0-1.43-0.17-4.79-0.17-6.05c0-8.15,3.44-13.36,16.46-16.21
		c2.6-0.59,4.62,1.01,4.62,3.44c0,2.02-1.34,3.11-2.35,3.44c-8.15,2.52-9.32,5.12-9.32,10.84c0,1.68,0.17,4.45,0.17,6.22
		c0,6.55-3.19,9.74-8.74,11.51c5.63,1.85,8.74,4.96,8.74,11.51c0,1.76-0.17,4.54-0.17,6.22c0,5.71,1.18,8.32,9.32,10.84
		c1.01,0.34,2.35,1.43,2.35,3.44c0,2.44-2.02,4.03-4.62,3.44C27.27,74.59,23.83,69.38,23.83,61.15z"/>
	<path class="st0" d="M92.02,11.47c7.22,0,13.86,2.52,18.98,6.47c0.92,0.76,1.09,2.18,0.34,2.94c-0.67,1.01-2.02,1.09-2.86,0.42
		c-4.54-3.53-10.25-5.71-16.46-5.71c-14.7,0-26.46,11.51-26.46,25.87c0,14.03,11.76,25.54,26.46,25.54c6.22,0,11.93-2.02,16.3-5.71
		c1.01-0.67,2.35-0.5,2.94,0.5c0.84,0.76,0.67,2.27-0.25,2.94c-5.12,3.95-11.76,6.38-18.98,6.38c-16.88,0-30.58-13.27-30.58-29.65
		C61.44,24.74,75.14,11.55,92.02,11.47z"/>
	<path class="st0" d="M138.05,66.49c0,2.52-2.1,4.62-4.54,4.62c-2.6,0-4.62-2.1-4.62-4.62v-48.8c0,0,0,0,0-0.08
		c-0.08-1.43,0.59-2.94,1.85-3.86c2.1-1.43,4.96-1.01,6.38,1.01l27.13,37.55V17.68c0-2.44,2.02-4.54,4.54-4.54
		c2.52,0,4.62,2.1,4.62,4.54v48.8c0,2.52-2.1,4.62-4.62,4.62c-1.34,0-2.6-0.67-3.44-1.68c-0.17-0.17-0.34-0.34-0.42-0.5l-26.88-37.3
		V66.49z"/>
	<path class="st0" d="M218.17,22.76c0,1.26-0.17,4.62-0.17,6.05c0,6.22,2.27,8.9,7.98,9.16c2.6,0.17,4.2,1.76,4.2,4.03
		c0,2.27-1.6,3.86-4.2,4.03c-5.71,0.17-7.98,2.94-7.98,9.07c0,1.43,0.17,4.79,0.17,6.05c0,8.23-3.44,13.44-16.46,16.3
		c-2.6,0.59-4.62-1.01-4.62-3.44c0-2.02,1.34-3.11,2.44-3.44c8.06-2.52,9.24-5.12,9.24-10.84c0-1.68-0.17-4.45-0.17-6.22
		c0-6.55,3.19-9.74,8.74-11.51c-5.63-1.85-8.74-4.96-8.74-11.51c0-1.76,0.17-4.54,0.17-6.22c0-5.71-1.18-8.32-9.24-10.84
		c-1.09-0.34-2.44-1.43-2.44-3.44c0-2.44,2.02-4.03,4.62-3.44C214.73,9.41,218.17,14.62,218.17,22.76z"/>
</g>
<g>
</g>
<g>
</g>
<g>
</g>
<g>
</g>
<g>
</g>
<g>
</g>
<g>
</g>
<g>
</g>
<g>
</g>
<g>
</g>
<g>
</g>
<g>
</g>
<g>
</g>
<g>
</g>
<g>
</g>
</svg>
